<?xml version="1.0" encoding="UTF-8"?><svg id="Layer_2" xmlns="http://www.w3.org/2000/svg" viewBox="0 0 209.28 233.78"><defs><style>.cls-1{stroke:#131312;stroke-miterlimit:10;stroke-width:5px;}</style></defs><g id="Layer_1-2"><path class="cls-1" d="m90.46,57.02c-4.59-17.97-16.65-26.65-31.21-32.89-4.21-1.8-10.54-2.69-7.77-9.21,2.55-5.98,7.94-3.25,12.33-1.54,11.76,4.59,21.7,11.74,29.63,21.7,3.93-5.54,7.16-11.2,11.44-15.91,12.11-13.29,27.76-17.69,45.26-16.49,5.54.38,8.74,2.64,9.19,9.18.97,13.94-1.83,26.7-9.8,38.8,6.01.42,11.38.3,16.57,1.23,21.91,3.92,31.59,20.09,37.38,39.19,7,23.09,1.81,45.42-6.06,67.34-7.86,21.91-20.96,40.77-34.95,59.01-8.08,10.54-18.49,16.17-32.44,12.71-17.16-4.25-34.36-2.95-51.52.37-12.92,2.5-23.85-1.11-31.62-11.84-19.19-26.52-37.51-53.72-42.71-86.92-1.85-11.8-2.52-24.5-.24-36.1,7.26-37.01,46.46-56.21,81.13-40.89,1.38.61,2.79,1.17,5.39,2.25Zm104.92,59.36c-.41-5.15-.42-10.37-1.3-15.44-5.83-33.77-30.9-47.34-62.15-33.32-17.01,7.63-33.1,7.25-49.8-1.29-27.72-14.17-59.22.76-66.78,30.85-3.06,12.16-1.54,24.1.86,36.11,5.39,26.95,20.6,49.03,34.82,71.73,7.8,12.46,17.73,16.4,31.96,13.13,15.73-3.63,31.73-3.38,47.54.4,9.6,2.29,17.3-.52,23.03-8.57,5.49-7.7,11.2-15.26,16.34-23.19,13.88-21.45,23.35-44.53,25.49-70.41ZM147.56,14.93c-25.95-4.17-48.89,20.22-44.35,44.19,25.51,3.19,47.19-18.18,44.35-44.19Z"/></g></svg>