<?xml version="1.0" encoding="UTF-8"?><svg id="Layer_2" xmlns="http://www.w3.org/2000/svg" viewBox="0 0 222.93 232.15"><g id="Layer_1-2"><g><path d="m111.2,222.54c-13.25-.01-26.13-2.16-38.49-6.95-3.42-1.32-6.4-1.25-9.76.37-10.43,5.04-21,9.81-31.53,14.66-5.09,2.34-8.82,2-11.9-1-3.27-3.18-3.66-6.85-1.27-12.18,3.77-8.39,7.42-16.84,11.41-25.13,1.27-2.65,1.2-4.25-.85-6.54C9.21,163.95-.18,138.25,0,108.99.32,58.63,38.59,12.23,87.97,2.35c61.11-12.23,117.97,24.29,132.2,84.92,13.17,56.11-22.08,115.03-78.76,130.95-9.75,2.74-20.01,3.63-30.04,5.37-.06-.35-.11-.71-.17-1.06Zm-73.87-11.07c7.48-3.47,13.92-6.35,20.25-9.43,6.39-3.12,12.7-3.29,19.36-.72,15.11,5.82,30.78,7.84,46.84,5.58,51.52-7.26,89.94-55.47,83.31-107.94-6.83-54.04-58.46-92.79-112.23-82.68-37.29,7.01-63.11,29.06-74.93,65.09-11.67,35.58-3.81,67.97,21.25,95.93,5.02,5.6,6.39,11.51,3.22,18.41-2.24,4.88-4.4,9.81-7.08,15.77Z"/><path d="m104.38,90.55c5.05,0,10.1-.03,15.15,0,8,.05,11.43,4.06,9.92,11.86-3.32,17.18-6.74,34.35-10.16,51.52-.67,3.36-.91,6.52,2.1,9,2.94,2.42,5.9,1.47,8.86.12,1.83-.83,3.57-1.92,5.45-2.59.94-.33,2.49-.38,3.08.17.62.57.89,2.25.5,3.05-.92,1.89-2.08,3.79-3.58,5.24-6.37,6.13-14.33,8.37-22.9,8.05-4.59-.17-9.32-.94-13.68-2.39-7.68-2.54-11.61-8.37-10.45-16.31,2.3-15.69,5.26-31.28,7.96-46.91.24-1.36.59-2.71.84-4.07.72-3.98-1.11-6.65-5.08-7.31-1.62-.27-3.26-.37-4.89-.54-2.86-.31-4.34-1.96-4.28-4.77.06-2.8,1.87-4.03,4.48-4.06,5.55-.07,11.11-.02,16.66-.02v-.03Z"/><path d="m98.95,66.11c-.1-8.94,7.19-16.38,16.21-16.54,8.81-.16,16.43,7.28,16.62,16.21.19,8.95-7.53,16.78-16.49,16.73-9-.04-16.23-7.3-16.34-16.4Z"/></g></g></svg>