<?xml version="1.0" encoding="UTF-8"?><svg id="Layer_2" xmlns="http://www.w3.org/2000/svg" viewBox="0 0 156.98 175.81"><g id="Layer_1-2"><path d="m67.6,41.9c-3.53-13.81-12.8-20.48-23.99-25.27-3.23-1.38-8.1-2.07-5.97-7.07,1.96-4.6,6.1-2.5,9.47-1.18,9.03,3.53,16.68,9.02,22.77,16.67,3.02-4.25,5.5-8.61,8.79-12.22C87.98,2.6,100.01-.78,113.46.15c4.26.29,6.71,2.03,7.07,7.05.75,10.71-1.41,20.51-7.53,29.82,4.62.32,8.75.23,12.73.95,16.84,3.01,24.28,15.44,28.72,30.11,5.38,17.74,1.39,34.9-4.65,51.75-6.04,16.83-16.1,31.33-26.86,45.35-6.21,8.1-14.21,12.43-24.93,9.77-13.19-3.27-26.41-2.27-39.59.28-9.93,1.92-18.33-.85-24.3-9.1C19.37,145.75,5.29,124.85,1.3,99.33c-1.42-9.07-1.94-18.83-.19-27.74,5.58-28.44,35.7-43.19,62.34-31.42,1.06.47,2.14.9,4.14,1.73Zm80.63,45.62c-.32-3.96-.32-7.97-1-11.86-4.48-25.95-23.75-36.38-47.76-25.6-13.07,5.86-25.43,5.57-38.27-.99-21.3-10.89-45.5.59-51.32,23.71-2.35,9.35-1.18,18.52.66,27.75,4.14,20.71,15.83,37.68,26.75,55.12,6,9.58,13.63,12.61,24.56,10.09,12.09-2.79,24.38-2.6,36.53.31,7.37,1.76,13.3-.4,17.7-6.59,4.22-5.92,8.61-11.73,12.56-17.82,10.67-16.48,17.94-34.22,19.58-54.11ZM111.47,9.55c-19.94-3.21-37.57,15.54-34.08,33.96,19.6,2.46,36.27-13.97,34.08-33.96Z"/></g></svg>